{
  "accessors": [
    {
      "bufferView": 0, 
      "byteOffset": 0, 
      "componentType": 5126, 
      "count": 908, 
      "max": [
        15.1, 
        15.098736066637253, 
        10.1
      ], 
      "min": [
        -15.1, 
        -15.098736066637253, 
        -0.1
      ], 
      "type": "VEC3"
    }, 
    {
      "bufferView": 1, 
      "byteOffset": 0, 
      "componentType": 5123, 
      "count": 5448, 
      "type": "SCALAR"
    }, 
    {
      "bufferView": 2, 
      "byteOffset": 0, 
      "componentType": 5126, 
      "count": 584, 
      "max": [
        5.1, 
        25.1, 
        5.1
      ], 
      "min": [
        -5.1, 
        -25.1, 
        -5.1
      ], 
      "type": "VEC3"
    }, 
    {
      "bufferView": 3, 
      "byteOffset": 0, 
      "componentType": 5123, 
      "count": 3492, 
      "type": "SCALAR"
    }, 
    {
      "bufferView": 4, 
      "byteOffset": 0, 
      "componentType": 5126, 
      "count": 908, 
      "max": [
        15.1, 
        15.098736066637253, 
        10.1
      ], 
      "min": [
        -15.1, 
        -15.098736066637253, 
        -0.1
      ], 
      "type": "VEC3"
    }, 
    {
      "bufferView": 5, 
      "byteOffset": 0, 
      "componentType": 5123, 
      "count": 5448, 
      "type": "SCALAR"
    }, 
    {
      "bufferView": 6, 
      "byteOffset": 0, 
      "componentType": 5126, 
      "count": 1364, 
      "max": [
        60.1, 
        30.1, 
        40.1
      ], 
      "min": [
        -60.1, 
        -30.1, 
        -0.10000000000000221
      ], 
      "type": "VEC3"
    }, 
    {
      "bufferView": 7, 
      "byteOffset": 0, 
      "componentType": 5123, 
      "count": 8172, 
      "type": "SCALAR"
    }, 
    {
      "bufferView": 8, 
      "byteOffset": 0, 
      "componentType": 5126, 
      "count": 908, 
      "max": [
        15.1, 
        15.098736066637253, 
        10.1
      ], 
      "min": [
        -15.1, 
        -15.098736066637253, 
        -0.1
      ], 
      "type": "VEC3"
    }, 
    {
      "bufferView": 9, 
      "byteOffset": 0, 
      "componentType": 5123, 
      "count": 5448, 
      "type": "SCALAR"
    }, 
    {
      "bufferView": 10, 
      "byteOffset": 0, 
      "componentType": 5126, 
      "count": 584, 
      "max": [
        5.1, 
        25.1, 
        5.1
      ], 
      "min": [
        -5.1, 
        -25.1, 
        -5.1
      ], 
      "type": "VEC3"
    }, 
    {
      "bufferView": 11, 
      "byteOffset": 0, 
      "componentType": 5123, 
      "count": 3492, 
      "type": "SCALAR"
    }, 
    {
      "bufferView": 12, 
      "byteOffset": 0, 
      "componentType": 5126, 
      "count": 908, 
      "max": [
        15.1, 
        15.098736066637253, 
        10.1
      ], 
      "min": [
        -15.1, 
        -15.098736066637253, 
        -0.1
      ], 
      "type": "VEC3"
    }, 
    {
      "bufferView": 13, 
      "byteOffset": 0, 
      "componentType": 5123, 
      "count": 5448, 
      "type": "SCALAR"
    }
  ], 
  "asset": {
    "generator": "cqparts_0.1.0", 
    "version": "2.0"
  }, 
  "bufferViews": [
    {
      "buffer": 0, 
      "byteLength": 10896, 
      "byteOffset": 0, 
      "byteStride": 12, 
      "target": 34962
    }, 
    {
      "buffer": 0, 
      "byteLength": 10896, 
      "byteOffset": 10896, 
      "target": 34963
    }, 
    {
      "buffer": 1, 
      "byteLength": 7008, 
      "byteOffset": 0, 
      "byteStride": 12, 
      "target": 34962
    }, 
    {
      "buffer": 1, 
      "byteLength": 6984, 
      "byteOffset": 7008, 
      "target": 34963
    }, 
    {
      "buffer": 2, 
      "byteLength": 10896, 
      "byteOffset": 0, 
      "byteStride": 12, 
      "target": 34962
    }, 
    {
      "buffer": 2, 
      "byteLength": 10896, 
      "byteOffset": 10896, 
      "target": 34963
    }, 
    {
      "buffer": 3, 
      "byteLength": 16368, 
      "byteOffset": 0, 
      "byteStride": 12, 
      "target": 34962
    }, 
    {
      "buffer": 3, 
      "byteLength": 16344, 
      "byteOffset": 16368, 
      "target": 34963
    }, 
    {
      "buffer": 4, 
      "byteLength": 10896, 
      "byteOffset": 0, 
      "byteStride": 12, 
      "target": 34962
    }, 
    {
      "buffer": 4, 
      "byteLength": 10896, 
      "byteOffset": 10896, 
      "target": 34963
    }, 
    {
      "buffer": 5, 
      "byteLength": 7008, 
      "byteOffset": 0, 
      "byteStride": 12, 
      "target": 34962
    }, 
    {
      "buffer": 5, 
      "byteLength": 6984, 
      "byteOffset": 7008, 
      "target": 34963
    }, 
    {
      "buffer": 6, 
      "byteLength": 10896, 
      "byteOffset": 0, 
      "byteStride": 12, 
      "target": 34962
    }, 
    {
      "buffer": 6, 
      "byteLength": 10896, 
      "byteOffset": 10896, 
      "target": 34963
    }
  ], 
  "buffers": [
    {
      "byteLength": 21792, 
      "uri": "car.front_axle.left_wheel.bin"
    }, 
    {
      "byteLength": 13992, 
      "uri": "car.front_axle.axle.bin"
    }, 
    {
      "byteLength": 21792, 
      "uri": "car.front_axle.right_wheel.bin"
    }, 
    {
      "byteLength": 32712, 
      "uri": "car.chassis.bin"
    }, 
    {
      "byteLength": 21792, 
      "uri": "car.rear_axle.left_wheel.bin"
    }, 
    {
      "byteLength": 13992, 
      "uri": "car.rear_axle.axle.bin"
    }, 
    {
      "byteLength": 21792, 
      "uri": "car.rear_axle.right_wheel.bin"
    }
  ], 
  "materials": [
    {
      "pbrMetallicRoughness": {
        "baseColorFactor": [
          0.6627, 
          0.1961, 
          0.149, 
          1.0
        ], 
        "metallicFactor": 0.0
      }
    }, 
    {
      "pbrMetallicRoughness": {
        "baseColorFactor": [
          0.1961, 
          0.1961, 
          0.1961, 
          1.0
        ], 
        "metallicFactor": 0.0
      }
    }, 
    {
      "pbrMetallicRoughness": {
        "baseColorFactor": [
          0.6627, 
          0.1961, 
          0.149, 
          1.0
        ], 
        "metallicFactor": 0.0
      }
    }, 
    {
      "pbrMetallicRoughness": {
        "baseColorFactor": [
          0.9216, 
          0.5961, 
          0.3059, 
          1.0
        ], 
        "metallicFactor": 0.0
      }
    }, 
    {
      "pbrMetallicRoughness": {
        "baseColorFactor": [
          0.6627, 
          0.1961, 
          0.149, 
          1.0
        ], 
        "metallicFactor": 0.0
      }
    }, 
    {
      "pbrMetallicRoughness": {
        "baseColorFactor": [
          0.1961, 
          0.1961, 
          0.1961, 
          1.0
        ], 
        "metallicFactor": 0.0
      }
    }, 
    {
      "pbrMetallicRoughness": {
        "baseColorFactor": [
          0.6627, 
          0.1961, 
          0.149, 
          1.0
        ], 
        "metallicFactor": 0.0
      }
    }
  ], 
  "meshes": [
    {
      "name": "car.front_axle.left_wheel", 
      "primitives": [
        {
          "attributes": {
            "POSITION": 0
          }, 
          "indices": 1, 
          "material": 0, 
          "mode": 4
        }
      ]
    }, 
    {
      "name": "car.front_axle.axle", 
      "primitives": [
        {
          "attributes": {
            "POSITION": 2
          }, 
          "indices": 3, 
          "material": 1, 
          "mode": 4
        }
      ]
    }, 
    {
      "name": "car.front_axle.right_wheel", 
      "primitives": [
        {
          "attributes": {
            "POSITION": 4
          }, 
          "indices": 5, 
          "material": 2, 
          "mode": 4
        }
      ]
    }, 
    {
      "name": "car.chassis", 
      "primitives": [
        {
          "attributes": {
            "POSITION": 6
          }, 
          "indices": 7, 
          "material": 3, 
          "mode": 4
        }
      ]
    }, 
    {
      "name": "car.rear_axle.left_wheel", 
      "primitives": [
        {
          "attributes": {
            "POSITION": 8
          }, 
          "indices": 9, 
          "material": 4, 
          "mode": 4
        }
      ]
    }, 
    {
      "name": "car.rear_axle.axle", 
      "primitives": [
        {
          "attributes": {
            "POSITION": 10
          }, 
          "indices": 11, 
          "material": 5, 
          "mode": 4
        }
      ]
    }, 
    {
      "name": "car.rear_axle.right_wheel", 
      "primitives": [
        {
          "attributes": {
            "POSITION": 12
          }, 
          "indices": 13, 
          "material": 6, 
          "mode": 4
        }
      ]
    }
  ], 
  "nodes": [
    {
      "children": [
        1
      ], 
      "matrix": [
        0.001, 
        0.0, 
        0.0, 
        0.0, 
        0.0, 
        0.0, 
        -0.001, 
        0.0, 
        0.0, 
        0.001, 
        0.0, 
        0.0, 
        0.0, 
        0.0, 
        0.0, 
        1.0
      ]
    }, 
    {
      "children": [
        2, 
        6, 
        7
      ], 
      "matrix": [
        1.0, 
        0.0, 
        0.0, 
        0.0, 
        0.0, 
        1.0, 
        0.0, 
        0.0, 
        0.0, 
        0.0, 
        1.0, 
        0.0, 
        0.0, 
        0.0, 
        0.0, 
        1.0
      ], 
      "name": "car"
    }, 
    {
      "children": [
        3, 
        4, 
        5
      ], 
      "matrix": [
        1.0, 
        0.0, 
        0.0, 
        0.0, 
        0.0, 
        1.0, 
        0.0, 
        0.0, 
        0.0, 
        0.0, 
        1.0, 
        0.0, 
        35.0, 
        0.0, 
        0.0, 
        1.0
      ], 
      "name": "car.front_axle"
    }, 
    {
      "matrix": [
        1.0, 
        0.0, 
        0.0, 
        0.0, 
        0.0, 
        0.0, 
        1.0, 
        0.0, 
        0.0, 
        -1.0, 
        0.0, 
        0.0, 
        0.0, 
        -25.0, 
        0.0, 
        1.0
      ], 
      "mesh": 0, 
      "name": "car.front_axle.left_wheel"
    }, 
    {
      "matrix": [
        1.0, 
        0.0, 
        0.0, 
        0.0, 
        0.0, 
        1.0, 
        0.0, 
        0.0, 
        0.0, 
        0.0, 
        1.0, 
        0.0, 
        0.0, 
        0.0, 
        0.0, 
        1.0
      ], 
      "mesh": 1, 
      "name": "car.front_axle.axle"
    }, 
    {
      "matrix": [
        1.0, 
        0.0, 
        0.0, 
        0.0, 
        0.0, 
        0.0, 
        -1.0, 
        0.0, 
        0.0, 
        1.0, 
        0.0, 
        0.0, 
        0.0, 
        25.0, 
        0.0, 
        1.0
      ], 
      "mesh": 2, 
      "name": "car.front_axle.right_wheel"
    }, 
    {
      "matrix": [
        1.0, 
        0.0, 
        0.0, 
        0.0, 
        0.0, 
        1.0, 
        0.0, 
        0.0, 
        0.0, 
        0.0, 
        1.0, 
        0.0, 
        0.0, 
        0.0, 
        0.0, 
        1.0
      ], 
      "mesh": 3, 
      "name": "car.chassis"
    }, 
    {
      "children": [
        8, 
        9, 
        10
      ], 
      "matrix": [
        1.0, 
        0.0, 
        0.0, 
        0.0, 
        0.0, 
        1.0, 
        0.0, 
        0.0, 
        0.0, 
        0.0, 
        1.0, 
        0.0, 
        -35.0, 
        0.0, 
        0.0, 
        1.0
      ], 
      "name": "car.rear_axle"
    }, 
    {
      "matrix": [
        1.0, 
        0.0, 
        0.0, 
        0.0, 
        0.0, 
        0.0, 
        1.0, 
        0.0, 
        0.0, 
        -1.0, 
        0.0, 
        0.0, 
        0.0, 
        -25.0, 
        0.0, 
        1.0
      ], 
      "mesh": 4, 
      "name": "car.rear_axle.left_wheel"
    }, 
    {
      "matrix": [
        1.0, 
        0.0, 
        0.0, 
        0.0, 
        0.0, 
        1.0, 
        0.0, 
        0.0, 
        0.0, 
        0.0, 
        1.0, 
        0.0, 
        0.0, 
        0.0, 
        0.0, 
        1.0
      ], 
      "mesh": 5, 
      "name": "car.rear_axle.axle"
    }, 
    {
      "matrix": [
        1.0, 
        0.0, 
        0.0, 
        0.0, 
        0.0, 
        0.0, 
        -1.0, 
        0.0, 
        0.0, 
        1.0, 
        0.0, 
        0.0, 
        0.0, 
        25.0, 
        0.0, 
        1.0
      ], 
      "mesh": 6, 
      "name": "car.rear_axle.right_wheel"
    }
  ], 
  "scene": 0, 
  "scenes": [
    {
      "nodes": [
        0
      ]
    }
  ]
}