<?xml version="1.0" encoding="UTF-8" standalone="no"?>
<!-- Created with Inkscape (http://www.inkscape.org/) -->

<svg
   xmlns:dc="http://purl.org/dc/elements/1.1/"
   xmlns:cc="http://creativecommons.org/ns#"
   xmlns:rdf="http://www.w3.org/1999/02/22-rdf-syntax-ns#"
   xmlns:svg="http://www.w3.org/2000/svg"
   xmlns="http://www.w3.org/2000/svg"
   xmlns:sodipodi="http://sodipodi.sourceforge.net/DTD/sodipodi-0.dtd"
   xmlns:inkscape="http://www.inkscape.org/namespaces/inkscape"
   width="275.896"
   height="86.370003"
   viewBox="0 0 275.896 86.370005"
   id="svg2"
   version="1.1"
   inkscape:version="0.91 r13725"
   sodipodi:docname="cqparts.svg"
   inkscape:export-filename="/home/nymphii/prj/cqparts/docs/_static/logos/cqparts_logo.svg_gray.png"
   inkscape:export-xdpi="90"
   inkscape:export-ydpi="90">
  <defs
     id="defs4" />
  <sodipodi:namedview
     id="base"
     pagecolor="#ffffff"
     bordercolor="#666666"
     borderopacity="1.0"
     inkscape:pageopacity="0.0"
     inkscape:pageshadow="2"
     inkscape:zoom="1.979899"
     inkscape:cx="141.85775"
     inkscape:cy="24.24833"
     inkscape:document-units="px"
     inkscape:current-layer="layer1"
     showgrid="false"
     units="px"
     inkscape:window-width="1094"
     inkscape:window-height="447"
     inkscape:window-x="2065"
     inkscape:window-y="610"
     inkscape:window-maximized="0" />
  <metadata
     id="metadata7">
    <rdf:RDF>
      <cc:Work
         rdf:about="">
        <dc:format>image/svg+xml</dc:format>
        <dc:type
           rdf:resource="http://purl.org/dc/dcmitype/StillImage" />
        <dc:title />
      </cc:Work>
    </rdf:RDF>
  </metadata>
  <g
     inkscape:label="Layer 1"
     inkscape:groupmode="layer"
     id="layer1"
     transform="translate(0,-965.99221)">
    <flowRoot
       xml:space="preserve"
       id="flowRoot3394"
       style="font-style:normal;font-weight:normal;font-size:40px;line-height:125%;font-family:sans-serif;letter-spacing:0px;word-spacing:0px;fill:#000000;fill-opacity:1;stroke:none;stroke-width:1px;stroke-linecap:butt;stroke-linejoin:miter;stroke-opacity:1"><flowRegion
         id="flowRegion3396"><rect
           id="rect3398"
           width="196.97975"
           height="69.19545"
           x="72.73098"
           y="766.48901" /></flowRegion><flowPara
         id="flowPara3400" /></flowRoot>    <path
       inkscape:connector-curvature="0"
       style="fill:#2980b9;fill-opacity:1;fill-rule:evenodd;stroke:#2980b9;stroke-width:3;stroke-linecap:butt;stroke-linejoin:round;stroke-opacity:1"
       d="m 1.5,967.49173 91.71655,0 0,83.37007 -91.71655,0 z"
       id="path4266" />
    <g
       id="g4246">
      <path
         inkscape:connector-curvature="0"
         id="path4225"
         style="font-style:normal;font-variant:normal;font-weight:bold;font-stretch:normal;font-size:70px;line-height:125%;font-family:Roboto;-inkscape-font-specification:'Roboto Bold';letter-spacing:0px;word-spacing:0px;fill:#ffffff;fill-opacity:1;stroke:none;stroke-width:1px;stroke-linecap:butt;stroke-linejoin:miter;stroke-opacity:1"
         d="m 29.36268,1017.6201 q 2.73438,0 4.44336,-1.5038 1.70899,-1.504 1.77735,-3.9991 l 9.26269,0 q -0.0342,3.7598 -2.05078,6.9043 -2.0166,3.1104 -5.53711,4.8535 -3.48633,1.709 -7.72461,1.709 -7.92969,0 -12.50976,-5.0244 -4.58008,-5.0586 -4.58008,-13.9453 l 0,-0.6494 q 0,-8.54494 4.5459,-13.63771 4.54589,-5.09278 12.47558,-5.09278 6.93848,0 11.1084,3.96485 4.2041,3.93066 4.27246,10.49314 l -9.26269,0 q -0.0684,-2.87107 -1.77735,-4.64842 -1.70898,-1.81152 -4.51172,-1.81152 -3.45214,0 -5.22949,2.5293 -1.74316,2.49514 -1.74316,8.13474 l 0,1.0254 q 0,5.708 1.74316,8.2031 1.74317,2.4951 5.29785,2.4951 z" />
      <path
         inkscape:connector-curvature="0"
         id="path4227"
         style="font-style:normal;font-variant:normal;font-weight:bold;font-stretch:normal;font-size:70px;line-height:125%;font-family:Roboto;-inkscape-font-specification:'Roboto Bold';letter-spacing:0px;word-spacing:0px;fill:#ffffff;fill-opacity:1;stroke:none;stroke-width:1px;stroke-linecap:butt;stroke-linejoin:miter;stroke-opacity:1"
         d="m 48.94764,1006.0674 q 0,-8.7158 3.86231,-13.77439 3.89648,-5.0586 10.66406,-5.0586 5.94727,0 9.46777,4.5459 l 0.64942,-3.8623 8.68164,0 0,51.20119 -9.91211,0 0,-17.3975 q -3.41797,3.8623 -8.95508,3.8623 -6.59668,0 -10.52734,-5.1269 -3.93067,-5.127 -3.93067,-14.3897 z m 9.87793,0.7178 q 0,5.2978 1.84571,8.0664 1.87988,2.7685 5.26367,2.7685 4.5459,0 6.42578,-3.623 l 0,-15.27831 q -1.8457,-3.48633 -6.35742,-3.48633 -3.41797,0 -5.29785,2.76855 -1.87989,2.76859 -1.87989,8.78419 z" />
    </g>
    <rect
       id="rect3406"
       width="178.29192"
       height="86.370003"
       x="97.603851"
       y="965.99219"
       style="fill:#7f7f7f;fill-opacity:1;image-rendering:auto"
       ry="1.6964372" />
    <g
       style="font-style:normal;font-variant:normal;font-weight:bold;font-stretch:normal;font-size:70.50919342px;line-height:125%;font-family:Roboto;-inkscape-font-specification:'Roboto, Bold';text-align:start;letter-spacing:0px;word-spacing:0px;writing-mode:lr-tb;text-anchor:start;fill:#ffffff;fill-opacity:1;stroke:none;stroke-width:1px;stroke-linecap:butt;stroke-linejoin:miter;stroke-opacity:1"
       id="text3402">
      <path
         d="m 141.14254,1006.6038 q 0,8.6071 -3.92483,13.8058 -3.8904,5.1642 -10.53507,5.1642 -5.64624,0 -9.1235,-3.9248 l 0,17.5584 -9.94979,0 0,-51.57359 9.22679,0 0.34429,3.64941 q 3.61497,-4.33797 9.43336,-4.33797 6.88566,0 10.7072,5.09539 3.82155,5.09539 3.82155,14.04676 l 0,0.5164 z m -9.94979,-0.723 q 0,-5.1987 -1.85913,-8.02178 -1.8247,-2.82312 -5.33639,-2.82312 -4.68225,0 -6.43809,3.58055 l 0,15.25175 q 1.8247,3.6838 6.50695,3.6838 7.12666,0 7.12666,-11.6712 z"
         style=""
         id="path4236" />
      <path
         d="m 168.85733,1024.8853 q -0.68856,-1.3428 -0.99842,-3.3396 -3.61497,4.0281 -9.39893,4.0281 -5.4741,0 -9.08908,-3.1674 -3.58054,-3.1674 -3.58054,-7.9874 0,-5.9216 4.3724,-9.089 4.40682,-3.1674 12.70404,-3.2019 l 4.57897,0 0,-2.13452 q 0,-2.58212 -1.3427,-4.1314 -1.30828,-1.54927 -4.16583,-1.54927 -2.51327,0 -3.95926,1.20499 -1.41156,1.20499 -1.41156,3.30512 l -9.94978,0 q 0,-3.23626 1.99684,-5.99053 1.99684,-2.75426 5.64625,-4.30354 3.6494,-1.5837 8.19394,-1.5837 6.88566,0 10.91377,3.47726 4.06254,3.44283 4.06254,9.70879 l 0,16.1469 q 0.0344,5.3019 1.48042,8.0218 l 0,0.5853 -10.05307,0 z m -8.22837,-6.9201 q 2.20342,0 4.06255,-0.964 1.85912,-0.9985 2.75426,-2.651 l 0,-6.4037 -3.71826,0 q -7.47094,0 -7.95294,5.1643 l -0.0344,0.5853 q 0,1.8591 1.30828,3.0641 1.30828,1.205 3.58054,1.205 z"
         style=""
         id="path4238" />
      <path
         d="m 206.07434,996.96389 q -2.03127,-0.27543 -3.58054,-0.27543 -5.64625,0 -7.40209,3.82154 l 0,24.3753 -9.94979,0 0,-37.25149 9.39893,0 0.27543,4.44126 q 2.99527,-5.12982 8.29723,-5.12982 1.65256,0 3.09854,0.44757 l -0.13771,9.57107 z"
         style=""
         id="path4240" />
      <path
         d="m 224.59678,978.47588 0,9.15793 6.36924,0 0,7.29881 -6.36924,0 0,18.59128 q 0,2.0657 0.79185,2.9608 0.79185,0.8952 3.02969,0.8952 1.65256,0 2.92641,-0.241 l 0,7.5398 q -2.92641,0.8951 -6.02496,0.8951 -10.46621,0 -10.67278,-10.5695 l 0,-20.07168 -5.43967,0 0,-7.29881 5.43967,0 0,-9.15793 9.94979,0 z"
         style=""
         id="path4242" />
      <path
         d="m 256.68398,1014.5912 q 0,-1.8247 -1.8247,-2.8576 -1.79028,-1.0672 -5.78396,-1.8935 -13.28933,-2.7887 -13.28933,-11.29251 0,-4.95768 4.09697,-8.26279 4.1314,-3.33955 10.77606,-3.33955 7.09223,0 11.32692,3.33955 4.26911,3.33954 4.26911,8.67593 l -9.94979,0 q 0,-2.13455 -1.37713,-3.51169 -1.37713,-1.41156 -4.30354,-1.41156 -2.51326,0 -3.8904,1.13614 -1.37713,1.13613 -1.37713,2.89197 0,1.65256 1.54927,2.68541 1.58371,0.9984 5.30196,1.7558 3.71826,0.723 6.26596,1.6526 7.88408,2.892 7.88408,10.0186 0,5.0954 -4.37239,8.2628 -4.3724,3.133 -11.29249,3.133 -4.68225,0 -8.33165,-1.6525 -3.61498,-1.687 -5.68068,-4.579 -2.0657,-2.9264 -2.0657,-6.3004 l 9.43336,0 q 0.13772,2.651 1.96242,4.0626 1.8247,1.4115 4.88882,1.4115 2.85755,0 4.30354,-1.0673 1.48042,-1.1017 1.48042,-2.8575 z"
         style=""
         id="path4244" />
    </g>
  </g>
</svg>
