<?xml version="1.0" encoding="UTF-8" standalone="no"?>
<svg
   xmlns:dc="http://purl.org/dc/elements/1.1/"
   xmlns:cc="http://creativecommons.org/ns#"
   xmlns:rdf="http://www.w3.org/1999/02/22-rdf-syntax-ns#"
   xmlns:svg="http://www.w3.org/2000/svg"
   xmlns="http://www.w3.org/2000/svg"
   xmlns:sodipodi="http://sodipodi.sourceforge.net/DTD/sodipodi-0.dtd"
   xmlns:inkscape="http://www.inkscape.org/namespaces/inkscape"
   version="1.1"
   id="svg4907"
   viewBox="0 0 94.716517 86.37009"
   height="24.375559mm"
   width="26.731106mm"
   inkscape:version="0.91 r13725"
   sodipodi:docname="cadquery_logo_light.svg">
  <sodipodi:namedview
     pagecolor="#ffffff"
     bordercolor="#666666"
     borderopacity="1"
     objecttolerance="10"
     gridtolerance="10"
     guidetolerance="10"
     inkscape:pageopacity="0"
     inkscape:pageshadow="2"
     inkscape:window-width="1362"
     inkscape:window-height="729"
     id="namedview4210"
     showgrid="false"
     inkscape:zoom="6.5647726"
     inkscape:cx="47.358258"
     inkscape:cy="43.185045"
     inkscape:window-x="1920"
     inkscape:window-y="450"
     inkscape:window-maximized="0"
     inkscape:current-layer="svg4907" />
  <defs
     id="defs4909" />
  <metadata
     id="metadata4912">
    <rdf:RDF>
      <cc:Work
         rdf:about="">
        <dc:format>image/svg+xml</dc:format>
        <dc:type
           rdf:resource="http://purl.org/dc/dcmitype/StillImage" />
        <dc:title />
      </cc:Work>
    </rdf:RDF>
  </metadata>
  <path
     inkscape:connector-curvature="0"
     style="fill:#ffffff;fill-opacity:1;fill-rule:evenodd;stroke:#2980b9;stroke-width:3;stroke-linecap:butt;stroke-linejoin:round;stroke-opacity:1"
     d="m 1.5,1.5 91.71652,0 0,83.37009 -91.71652,0 z"
     id="path4280" />
  <g
     style="font-style:normal;font-weight:normal;font-size:40px;line-height:125%;font-family:sans-serif;letter-spacing:0px;word-spacing:0px;fill:#000000;fill-opacity:1;stroke:none;stroke-width:1px;stroke-linecap:butt;stroke-linejoin:miter;stroke-opacity:1"
     id="text4136">
    <path
       d="m 29.362647,51.628376 q 2.734375,0 4.443359,-1.503906 1.708985,-1.503906 1.777344,-3.999024 l 9.262695,0 q -0.03418,3.759766 -2.050781,6.904297 -2.016601,3.110352 -5.537109,4.853516 -3.486328,1.708984 -7.72461,1.708984 -7.929687,0 -12.509765,-5.024414 -4.580078,-5.058594 -4.580078,-13.945312 l 0,-0.649414 q 0,-8.544922 4.545898,-13.637696 4.545899,-5.092773 12.475586,-5.092773 6.938477,0 11.108399,3.964844 4.204101,3.930664 4.27246,10.493164 l -9.262695,0 q -0.06836,-2.871094 -1.777344,-4.648438 -1.708984,-1.811523 -4.511718,-1.811523 -3.452149,0 -5.229493,2.529297 -1.743164,2.495117 -1.743164,8.134765 l 0,1.025391 q 0,5.708008 1.743164,8.203125 1.743165,2.495117 5.297852,2.495117 z"
       style="font-style:normal;font-variant:normal;font-weight:bold;font-stretch:normal;font-size:70px;font-family:Roboto;-inkscape-font-specification:'Roboto Bold';fill:#2980b9;fill-opacity:1"
       id="path4216" />
    <path
       d="m 48.947608,40.075642 q 0,-8.715821 3.862305,-13.774414 3.896484,-5.058594 10.664062,-5.058594 5.947266,0 9.467774,4.545898 l 0.649414,-3.862304 8.68164,0 0,51.201171 -9.912109,0 0,-17.39746 q -3.417969,3.862304 -8.955078,3.862304 -6.59668,0 -10.527344,-5.126953 -3.930664,-5.126953 -3.930664,-14.389648 z m 9.87793,0.717773 q 0,5.297852 1.845703,8.066406 1.879883,2.768555 5.263672,2.768555 4.545898,0 6.425781,-3.623047 l 0,-15.27832 q -1.845703,-3.486328 -6.357422,-3.486328 -3.417969,0 -5.297852,2.768554 -1.879882,2.768555 -1.879882,8.78418 z"
       style="font-style:normal;font-variant:normal;font-weight:bold;font-stretch:normal;font-size:70px;font-family:Roboto;-inkscape-font-specification:'Roboto Bold';fill:#2980b9;fill-opacity:1"
       id="path4218" />
  </g>
</svg>
