{
  "accessors": [
    {
      "bufferView": 0, 
      "byteOffset": 0, 
      "componentType": 5126, 
      "count": 196, 
      "max": [
        20.1, 
        15.1, 
        7.6
      ], 
      "min": [
        -20.1, 
        -15.1, 
        -7.6
      ], 
      "type": "VEC3"
    }, 
    {
      "bufferView": 1, 
      "byteOffset": 0, 
      "componentType": 5121, 
      "count": 1164, 
      "type": "SCALAR"
    }, 
    {
      "bufferView": 2, 
      "byteOffset": 0, 
      "componentType": 5126, 
      "count": 458, 
      "max": [
        20.1, 
        15.1, 
        7.6
      ], 
      "min": [
        -20.1, 
        -15.1, 
        -7.6
      ], 
      "type": "VEC3"
    }, 
    {
      "bufferView": 3, 
      "byteOffset": 0, 
      "componentType": 5123, 
      "count": 2748, 
      "type": "SCALAR"
    }, 
    {
      "bufferView": 4, 
      "byteOffset": 0, 
      "componentType": 5126, 
      "count": 1048, 
      "max": [
        3.1, 
        3.1, 
        2.1
      ], 
      "min": [
        -3.1, 
        -3.1, 
        -40.1
      ], 
      "type": "VEC3"
    }, 
    {
      "bufferView": 5, 
      "byteOffset": 0, 
      "componentType": 5123, 
      "count": 6276, 
      "type": "SCALAR"
    }, 
    {
      "bufferView": 6, 
      "byteOffset": 0, 
      "componentType": 5126, 
      "count": 599, 
      "max": [
        5.1, 
        5.1, 
        0.1
      ], 
      "min": [
        -5.1, 
        -5.1, 
        -7.1
      ], 
      "type": "VEC3"
    }, 
    {
      "bufferView": 7, 
      "byteOffset": 0, 
      "componentType": 5123, 
      "count": 3594, 
      "type": "SCALAR"
    }
  ], 
  "asset": {
    "generator": "cqparts_0.2.1", 
    "version": "2.0"
  }, 
  "bufferViews": [
    {
      "buffer": 0, 
      "byteLength": 2352, 
      "byteOffset": 0, 
      "byteStride": 12, 
      "target": 34962
    }, 
    {
      "buffer": 0, 
      "byteLength": 1164, 
      "byteOffset": 2352, 
      "target": 34963
    }, 
    {
      "buffer": 1, 
      "byteLength": 5496, 
      "byteOffset": 0, 
      "byteStride": 12, 
      "target": 34962
    }, 
    {
      "buffer": 1, 
      "byteLength": 5496, 
      "byteOffset": 5496, 
      "target": 34963
    }, 
    {
      "buffer": 2, 
      "byteLength": 12576, 
      "byteOffset": 0, 
      "byteStride": 12, 
      "target": 34962
    }, 
    {
      "buffer": 2, 
      "byteLength": 12552, 
      "byteOffset": 12576, 
      "target": 34963
    }, 
    {
      "buffer": 3, 
      "byteLength": 7188, 
      "byteOffset": 0, 
      "byteStride": 12, 
      "target": 34962
    }, 
    {
      "buffer": 3, 
      "byteLength": 7188, 
      "byteOffset": 7188, 
      "target": 34963
    }
  ], 
  "buffers": [
    {
      "byteLength": 3516, 
      "uri": "connected_catalogue.panel1.bin"
    }, 
    {
      "byteLength": 10992, 
      "uri": "connected_catalogue.panel2.bin"
    }, 
    {
      "byteLength": 25128, 
      "uri": "connected_catalogue.fastener.screw.bin"
    }, 
    {
      "byteLength": 14376, 
      "uri": "connected_catalogue.fastener.anchor.bin"
    }
  ], 
  "materials": [
    {
      "alphaCutoff": 1.0, 
      "alphaMode": "MASK", 
      "pbrMetallicRoughness": {
        "baseColorFactor": [
          0.7843, 
          0.7843, 
          0.7843, 
          0.5
        ], 
        "metallicFactor": 0.1, 
        "roughnessFactor": 0.7
      }
    }, 
    {
      "alphaCutoff": 1.0, 
      "alphaMode": "MASK", 
      "pbrMetallicRoughness": {
        "baseColorFactor": [
          0.7843, 
          0.7843, 
          0.7843, 
          0.5
        ], 
        "metallicFactor": 0.1, 
        "roughnessFactor": 0.7
      }
    }, 
    {
      "alphaCutoff": 1.0, 
      "alphaMode": "MASK", 
      "pbrMetallicRoughness": {
        "baseColorFactor": [
          0.7529, 
          0.7529, 
          0.7529, 
          1.0
        ], 
        "metallicFactor": 0.1, 
        "roughnessFactor": 0.7
      }
    }, 
    {
      "alphaCutoff": 1.0, 
      "alphaMode": "MASK", 
      "pbrMetallicRoughness": {
        "baseColorFactor": [
          0.3922, 
          0.3922, 
          0.5882, 
          1.0
        ], 
        "metallicFactor": 0.1, 
        "roughnessFactor": 0.7
      }
    }
  ], 
  "meshes": [
    {
      "name": "connected_catalogue.panel1", 
      "primitives": [
        {
          "attributes": {
            "POSITION": 0
          }, 
          "indices": 1, 
          "material": 0, 
          "mode": 4
        }
      ]
    }, 
    {
      "name": "connected_catalogue.panel2", 
      "primitives": [
        {
          "attributes": {
            "POSITION": 2
          }, 
          "indices": 3, 
          "material": 1, 
          "mode": 4
        }
      ]
    }, 
    {
      "name": "connected_catalogue.fastener.screw", 
      "primitives": [
        {
          "attributes": {
            "POSITION": 4
          }, 
          "indices": 5, 
          "material": 2, 
          "mode": 4
        }
      ]
    }, 
    {
      "name": "connected_catalogue.fastener.anchor", 
      "primitives": [
        {
          "attributes": {
            "POSITION": 6
          }, 
          "indices": 7, 
          "material": 3, 
          "mode": 4
        }
      ]
    }
  ], 
  "nodes": [
    {
      "children": [
        1
      ], 
      "matrix": [
        0.001, 
        0.0, 
        0.0, 
        0.0, 
        0.0, 
        0.0, 
        -0.001, 
        0.0, 
        0.0, 
        0.001, 
        0.0, 
        0.0, 
        0.0, 
        0.0, 
        0.0, 
        1.0
      ]
    }, 
    {
      "children": [
        2, 
        3, 
        4
      ], 
      "matrix": [
        1.0, 
        0.0, 
        0.0, 
        0.0, 
        0.0, 
        1.0, 
        0.0, 
        0.0, 
        0.0, 
        0.0, 
        1.0, 
        0.0, 
        0.0, 
        0.0, 
        0.0, 
        1.0
      ], 
      "name": "connected_catalogue"
    }, 
    {
      "matrix": [
        1.0, 
        0.0, 
        0.0, 
        0.0, 
        0.0, 
        1.0, 
        0.0, 
        0.0, 
        0.0, 
        0.0, 
        1.0, 
        0.0, 
        0.0, 
        0.0, 
        0.0, 
        1.0
      ], 
      "mesh": 0, 
      "name": "connected_catalogue.panel1"
    }, 
    {
      "matrix": [
        0.0, 
        0.0, 
        -1.0, 
        0.0, 
        -0.0, 
        -1.0, 
        -0.0, 
        -0.0, 
        -1.0, 
        0.0, 
        0.0, 
        0.0, 
        12.5, 
        0.0, 
        27.5, 
        1.0
      ], 
      "mesh": 1, 
      "name": "connected_catalogue.panel2"
    }, 
    {
      "children": [
        5, 
        6
      ], 
      "matrix": [
        0.0, 
        -1.0, 
        0.0, 
        0.0, 
        1.0, 
        0.0, 
        0.0, 
        0.0, 
        0.0, 
        0.0, 
        1.0, 
        0.0, 
        12.5, 
        0.0, 
        32.5, 
        1.0
      ], 
      "name": "connected_catalogue.fastener"
    }, 
    {
      "matrix": [
        1.0, 
        0.0, 
        0.0, 
        0.0, 
        0.0, 
        1.0, 
        0.0, 
        0.0, 
        0.0, 
        0.0, 
        1.0, 
        0.0, 
        0.0, 
        0.0, 
        5.0, 
        1.0
      ], 
      "mesh": 2, 
      "name": "connected_catalogue.fastener.screw"
    }, 
    {
      "matrix": [
        1.0, 
        0.0, 
        0.0, 
        0.0, 
        0.0, 
        0.0, 
        1.0, 
        0.0, 
        0.0, 
        -1.0, 
        0.0, 
        0.0, 
        0.0, 
        -3.5, 
        9.225000000000001, 
        1.0
      ], 
      "mesh": 3, 
      "name": "connected_catalogue.fastener.anchor"
    }
  ], 
  "scene": 0, 
  "scenes": [
    {
      "nodes": [
        0
      ]
    }
  ]
}